<svg xmlns="http://www.w3.org/2000/svg" width="94.401" height="11.696" viewBox="0 0 94.401 11.696"><path id="Path_45088" data-name="Path 45088" d="M18.02-11.56H14.977L12.818-4.386,10.37-11.56H7.99v.034L5.542-4.369,3.383-11.56H.34L4.08.068H6.851L9.18-6.987,11.509.068H14.28ZM38.59-3.094H23.7V-5.729H38.59Zm6.341-8.466V0h4.658c3.621,0,6.239-2.38,6.239-5.814,0-3.383-2.618-5.746-6.239-5.746ZM47.8-2.584V-8.976h1.785A3.193,3.193,0,0,1,52.9-5.814a3.217,3.217,0,0,1-3.315,3.23Zm28.866-.51H61.778V-5.729H76.67Zm14.246,1.1L91.7,0h3.043l-4.9-11.628H87.108L82.195,0h3.06l.765-1.989Zm-.952-2.448H86.972l1.5-3.842Z" transform="translate(-0.34 11.628)"></path></svg>