<svg xmlns="http://www.w3.org/2000/svg" xmlns:xlink="http://www.w3.org/1999/xlink" width="78" height="72" viewBox="0 0 78 72"><defs><clipPath id="a"><rect width="78" height="72" fill="none"></rect></clipPath></defs><g opacity="0.085" clip-path="url(#a)"><path d="M5,0H6L0,6V5Z" fill-rule="evenodd"></path><path d="M6,5V6H5Z" fill-rule="evenodd"></path><g transform="translate(6)"><path d="M5,0H6L0,6V5Z" fill-rule="evenodd"></path><path d="M6,5V6H5Z" fill-rule="evenodd"></path></g><g transform="translate(12)"><path d="M5,0H6L0,6V5Z" fill-rule="evenodd"></path><path d="M6,5V6H5Z" fill-rule="evenodd"></path></g><g transform="translate(18)"><path d="M5,0H6L0,6V5Z" fill-rule="evenodd"></path><path d="M6,5V6H5Z" fill-rule="evenodd"></path></g><g transform="translate(24)"><path d="M5,0H6L0,6V5Z" fill-rule="evenodd"></path><path d="M6,5V6H5Z" fill-rule="evenodd"></path></g><g transform="translate(30)"><path d="M5,0H6L0,6V5Z" fill-rule="evenodd"></path><path d="M6,5V6H5Z" fill-rule="evenodd"></path></g><g transform="translate(36)"><path d="M5,0H6L0,6V5Z" fill-rule="evenodd"></path><path d="M6,5V6H5Z" fill-rule="evenodd"></path></g><g transform="translate(42)"><path d="M5,0H6L0,6V5Z" fill-rule="evenodd"></path><path d="M6,5V6H5Z" fill-rule="evenodd"></path></g><g transform="translate(48)"><path d="M5,0H6L0,6V5Z" fill-rule="evenodd"></path><path d="M6,5V6H5Z" fill-rule="evenodd"></path></g><g transform="translate(54)"><path d="M5,0H6L0,6V5Z" fill-rule="evenodd"></path><path d="M6,5V6H5Z" fill-rule="evenodd"></path></g><g transform="translate(60)"><path d="M5,0H6L0,6V5Z" fill-rule="evenodd"></path><path d="M6,5V6H5Z" fill-rule="evenodd"></path></g><g transform="translate(66)"><path d="M5,0H6L0,6V5Z" fill-rule="evenodd"></path><path d="M6,5V6H5Z" fill-rule="evenodd"></path></g><g transform="translate(72)"><path d="M5,0H6L0,6V5Z" fill-rule="evenodd"></path><path d="M6,5V6H5Z" fill-rule="evenodd"></path></g><g transform="translate(0 6)"><path d="M5,0H6L0,6V5Z" fill-rule="evenodd"></path><path d="M6,5V6H5Z" fill-rule="evenodd"></path></g><g transform="translate(6 6)"><path d="M5,0H6L0,6V5Z" fill-rule="evenodd"></path><path d="M6,5V6H5Z" fill-rule="evenodd"></path></g><g transform="translate(12 6)"><path d="M5,0H6L0,6V5Z" fill-rule="evenodd"></path><path d="M6,5V6H5Z" fill-rule="evenodd"></path></g><g transform="translate(18 6)"><path d="M5,0H6L0,6V5Z" fill-rule="evenodd"></path><path d="M6,5V6H5Z" fill-rule="evenodd"></path></g><g transform="translate(24 6)"><path d="M5,0H6L0,6V5Z" fill-rule="evenodd"></path><path d="M6,5V6H5Z" fill-rule="evenodd"></path></g><g transform="translate(30 6)"><path d="M5,0H6L0,6V5Z" fill-rule="evenodd"></path><path d="M6,5V6H5Z" fill-rule="evenodd"></path></g><g transform="translate(36 6)"><path d="M5,0H6L0,6V5Z" fill-rule="evenodd"></path><path d="M6,5V6H5Z" fill-rule="evenodd"></path></g><g transform="translate(42 6)"><path d="M5,0H6L0,6V5Z" fill-rule="evenodd"></path><path d="M6,5V6H5Z" fill-rule="evenodd"></path></g><g transform="translate(48 6)"><path d="M5,0H6L0,6V5Z" fill-rule="evenodd"></path><path d="M6,5V6H5Z" fill-rule="evenodd"></path></g><g transform="translate(54 6)"><path d="M5,0H6L0,6V5Z" fill-rule="evenodd"></path><path d="M6,5V6H5Z" fill-rule="evenodd"></path></g><g transform="translate(60 6)"><path d="M5,0H6L0,6V5Z" fill-rule="evenodd"></path><path d="M6,5V6H5Z" fill-rule="evenodd"></path></g><g transform="translate(66 6)"><path d="M5,0H6L0,6V5Z" fill-rule="evenodd"></path><path d="M6,5V6H5Z" fill-rule="evenodd"></path></g><g transform="translate(72 6)"><path d="M5,0H6L0,6V5Z" fill-rule="evenodd"></path><path d="M6,5V6H5Z" fill-rule="evenodd"></path></g><g transform="translate(0 12)"><path d="M5,0H6L0,6V5Z" fill-rule="evenodd"></path><path d="M6,5V6H5Z" fill-rule="evenodd"></path></g><g transform="translate(6 12)"><path d="M5,0H6L0,6V5Z" fill-rule="evenodd"></path><path d="M6,5V6H5Z" fill-rule="evenodd"></path></g><g transform="translate(12 12)"><path d="M5,0H6L0,6V5Z" fill-rule="evenodd"></path><path d="M6,5V6H5Z" fill-rule="evenodd"></path></g><g transform="translate(18 12)"><path d="M5,0H6L0,6V5Z" fill-rule="evenodd"></path><path d="M6,5V6H5Z" fill-rule="evenodd"></path></g><g transform="translate(24 12)"><path d="M5,0H6L0,6V5Z" fill-rule="evenodd"></path><path d="M6,5V6H5Z" fill-rule="evenodd"></path></g><g transform="translate(30 12)"><path d="M5,0H6L0,6V5Z" fill-rule="evenodd"></path><path d="M6,5V6H5Z" fill-rule="evenodd"></path></g><g transform="translate(36 12)"><path d="M5,0H6L0,6V5Z" fill-rule="evenodd"></path><path d="M6,5V6H5Z" fill-rule="evenodd"></path></g><g transform="translate(42 12)"><path d="M5,0H6L0,6V5Z" fill-rule="evenodd"></path><path d="M6,5V6H5Z" fill-rule="evenodd"></path></g><g transform="translate(48 12)"><path d="M5,0H6L0,6V5Z" fill-rule="evenodd"></path><path d="M6,5V6H5Z" fill-rule="evenodd"></path></g><g transform="translate(54 12)"><path d="M5,0H6L0,6V5Z" fill-rule="evenodd"></path><path d="M6,5V6H5Z" fill-rule="evenodd"></path></g><g transform="translate(60 12)"><path d="M5,0H6L0,6V5Z" fill-rule="evenodd"></path><path d="M6,5V6H5Z" fill-rule="evenodd"></path></g><g transform="translate(66 12)"><path d="M5,0H6L0,6V5Z" fill-rule="evenodd"></path><path d="M6,5V6H5Z" fill-rule="evenodd"></path></g><g transform="translate(72 12)"><path d="M5,0H6L0,6V5Z" fill-rule="evenodd"></path><path d="M6,5V6H5Z" fill-rule="evenodd"></path></g><g transform="translate(0 18)"><path d="M5,0H6L0,6V5Z" fill-rule="evenodd"></path><path d="M6,5V6H5Z" fill-rule="evenodd"></path></g><g transform="translate(6 18)"><path d="M5,0H6L0,6V5Z" fill-rule="evenodd"></path><path d="M6,5V6H5Z" fill-rule="evenodd"></path></g><g transform="translate(12 18)"><path d="M5,0H6L0,6V5Z" fill-rule="evenodd"></path><path d="M6,5V6H5Z" fill-rule="evenodd"></path></g><g transform="translate(18 18)"><path d="M5,0H6L0,6V5Z" fill-rule="evenodd"></path><path d="M6,5V6H5Z" fill-rule="evenodd"></path></g><g transform="translate(24 18)"><path d="M5,0H6L0,6V5Z" fill-rule="evenodd"></path><path d="M6,5V6H5Z" fill-rule="evenodd"></path></g><g transform="translate(30 18)"><path d="M5,0H6L0,6V5Z" fill-rule="evenodd"></path><path d="M6,5V6H5Z" fill-rule="evenodd"></path></g><g transform="translate(36 18)"><path d="M5,0H6L0,6V5Z" fill-rule="evenodd"></path><path d="M6,5V6H5Z" fill-rule="evenodd"></path></g><g transform="translate(42 18)"><path d="M5,0H6L0,6V5Z" fill-rule="evenodd"></path><path d="M6,5V6H5Z" fill-rule="evenodd"></path></g><g transform="translate(48 18)"><path d="M5,0H6L0,6V5Z" fill-rule="evenodd"></path><path d="M6,5V6H5Z" fill-rule="evenodd"></path></g><g transform="translate(54 18)"><path d="M5,0H6L0,6V5Z" fill-rule="evenodd"></path><path d="M6,5V6H5Z" fill-rule="evenodd"></path></g><g transform="translate(60 18)"><path d="M5,0H6L0,6V5Z" fill-rule="evenodd"></path><path d="M6,5V6H5Z" fill-rule="evenodd"></path></g><g transform="translate(66 18)"><path d="M5,0H6L0,6V5Z" fill-rule="evenodd"></path><path d="M6,5V6H5Z" fill-rule="evenodd"></path></g><g transform="translate(72 18)"><path d="M5,0H6L0,6V5Z" fill-rule="evenodd"></path><path d="M6,5V6H5Z" fill-rule="evenodd"></path></g><g transform="translate(0 24)"><path d="M5,0H6L0,6V5Z" fill-rule="evenodd"></path><path d="M6,5V6H5Z" fill-rule="evenodd"></path></g><g transform="translate(6 24)"><path d="M5,0H6L0,6V5Z" fill-rule="evenodd"></path><path d="M6,5V6H5Z" fill-rule="evenodd"></path></g><g transform="translate(12 24)"><path d="M5,0H6L0,6V5Z" fill-rule="evenodd"></path><path d="M6,5V6H5Z" fill-rule="evenodd"></path></g><g transform="translate(18 24)"><path d="M5,0H6L0,6V5Z" fill-rule="evenodd"></path><path d="M6,5V6H5Z" fill-rule="evenodd"></path></g><g transform="translate(24 24)"><path d="M5,0H6L0,6V5Z" fill-rule="evenodd"></path><path d="M6,5V6H5Z" fill-rule="evenodd"></path></g><g transform="translate(30 24)"><path d="M5,0H6L0,6V5Z" fill-rule="evenodd"></path><path d="M6,5V6H5Z" fill-rule="evenodd"></path></g><g transform="translate(36 24)"><path d="M5,0H6L0,6V5Z" fill-rule="evenodd"></path><path d="M6,5V6H5Z" fill-rule="evenodd"></path></g><g transform="translate(42 24)"><path d="M5,0H6L0,6V5Z" fill-rule="evenodd"></path><path d="M6,5V6H5Z" fill-rule="evenodd"></path></g><g transform="translate(48 24)"><path d="M5,0H6L0,6V5Z" fill-rule="evenodd"></path><path d="M6,5V6H5Z" fill-rule="evenodd"></path></g><g transform="translate(54 24)"><path d="M5,0H6L0,6V5Z" fill-rule="evenodd"></path><path d="M6,5V6H5Z" fill-rule="evenodd"></path></g><g transform="translate(60 24)"><path d="M5,0H6L0,6V5Z" fill-rule="evenodd"></path><path d="M6,5V6H5Z" fill-rule="evenodd"></path></g><g transform="translate(66 24)"><path d="M5,0H6L0,6V5Z" fill-rule="evenodd"></path><path d="M6,5V6H5Z" fill-rule="evenodd"></path></g><g transform="translate(72 24)"><path d="M5,0H6L0,6V5Z" fill-rule="evenodd"></path><path d="M6,5V6H5Z" fill-rule="evenodd"></path></g><g transform="translate(0 30)"><path d="M5,0H6L0,6V5Z" fill-rule="evenodd"></path><path d="M6,5V6H5Z" fill-rule="evenodd"></path></g><g transform="translate(6 30)"><path d="M5,0H6L0,6V5Z" fill-rule="evenodd"></path><path d="M6,5V6H5Z" fill-rule="evenodd"></path></g><g transform="translate(12 30)"><path d="M5,0H6L0,6V5Z" fill-rule="evenodd"></path><path d="M6,5V6H5Z" fill-rule="evenodd"></path></g><g transform="translate(18 30)"><path d="M5,0H6L0,6V5Z" fill-rule="evenodd"></path><path d="M6,5V6H5Z" fill-rule="evenodd"></path></g><g transform="translate(24 30)"><path d="M5,0H6L0,6V5Z" fill-rule="evenodd"></path><path d="M6,5V6H5Z" fill-rule="evenodd"></path></g><g transform="translate(30 30)"><path d="M5,0H6L0,6V5Z" fill-rule="evenodd"></path><path d="M6,5V6H5Z" fill-rule="evenodd"></path></g><g transform="translate(36 30)"><path d="M5,0H6L0,6V5Z" fill-rule="evenodd"></path><path d="M6,5V6H5Z" fill-rule="evenodd"></path></g><g transform="translate(42 30)"><path d="M5,0H6L0,6V5Z" fill-rule="evenodd"></path><path d="M6,5V6H5Z" fill-rule="evenodd"></path></g><g transform="translate(48 30)"><path d="M5,0H6L0,6V5Z" fill-rule="evenodd"></path><path d="M6,5V6H5Z" fill-rule="evenodd"></path></g><g transform="translate(54 30)"><path d="M5,0H6L0,6V5Z" fill-rule="evenodd"></path><path d="M6,5V6H5Z" fill-rule="evenodd"></path></g><g transform="translate(60 30)"><path d="M5,0H6L0,6V5Z" fill-rule="evenodd"></path><path d="M6,5V6H5Z" fill-rule="evenodd"></path></g><g transform="translate(66 30)"><path d="M5,0H6L0,6V5Z" fill-rule="evenodd"></path><path d="M6,5V6H5Z" fill-rule="evenodd"></path></g><g transform="translate(72 30)"><path d="M5,0H6L0,6V5Z" fill-rule="evenodd"></path><path d="M6,5V6H5Z" fill-rule="evenodd"></path></g><g transform="translate(0 36)"><path d="M5,0H6L0,6V5Z" fill-rule="evenodd"></path><path d="M6,5V6H5Z" fill-rule="evenodd"></path></g><g transform="translate(6 36)"><path d="M5,0H6L0,6V5Z" fill-rule="evenodd"></path><path d="M6,5V6H5Z" fill-rule="evenodd"></path></g><g transform="translate(12 36)"><path d="M5,0H6L0,6V5Z" fill-rule="evenodd"></path><path d="M6,5V6H5Z" fill-rule="evenodd"></path></g><g transform="translate(18 36)"><path d="M5,0H6L0,6V5Z" fill-rule="evenodd"></path><path d="M6,5V6H5Z" fill-rule="evenodd"></path></g><g transform="translate(24 36)"><path d="M5,0H6L0,6V5Z" fill-rule="evenodd"></path><path d="M6,5V6H5Z" fill-rule="evenodd"></path></g><g transform="translate(30 36)"><path d="M5,0H6L0,6V5Z" fill-rule="evenodd"></path><path d="M6,5V6H5Z" fill-rule="evenodd"></path></g><g transform="translate(36 36)"><path d="M5,0H6L0,6V5Z" fill-rule="evenodd"></path><path d="M6,5V6H5Z" fill-rule="evenodd"></path></g><g transform="translate(42 36)"><path d="M5,0H6L0,6V5Z" fill-rule="evenodd"></path><path d="M6,5V6H5Z" fill-rule="evenodd"></path></g><g transform="translate(48 36)"><path d="M5,0H6L0,6V5Z" fill-rule="evenodd"></path><path d="M6,5V6H5Z" fill-rule="evenodd"></path></g><g transform="translate(54 36)"><path d="M5,0H6L0,6V5Z" fill-rule="evenodd"></path><path d="M6,5V6H5Z" fill-rule="evenodd"></path></g><g transform="translate(60 36)"><path d="M5,0H6L0,6V5Z" fill-rule="evenodd"></path><path d="M6,5V6H5Z" fill-rule="evenodd"></path></g><g transform="translate(66 36)"><path d="M5,0H6L0,6V5Z" fill-rule="evenodd"></path><path d="M6,5V6H5Z" fill-rule="evenodd"></path></g><g transform="translate(72 36)"><path d="M5,0H6L0,6V5Z" fill-rule="evenodd"></path><path d="M6,5V6H5Z" fill-rule="evenodd"></path></g><g transform="translate(0 42)"><path d="M5,0H6L0,6V5Z" fill-rule="evenodd"></path><path d="M6,5V6H5Z" fill-rule="evenodd"></path></g><g transform="translate(6 42)"><path d="M5,0H6L0,6V5Z" fill-rule="evenodd"></path><path d="M6,5V6H5Z" fill-rule="evenodd"></path></g><g transform="translate(12 42)"><path d="M5,0H6L0,6V5Z" fill-rule="evenodd"></path><path d="M6,5V6H5Z" fill-rule="evenodd"></path></g><g transform="translate(18 42)"><path d="M5,0H6L0,6V5Z" fill-rule="evenodd"></path><path d="M6,5V6H5Z" fill-rule="evenodd"></path></g><g transform="translate(24 42)"><path d="M5,0H6L0,6V5Z" fill-rule="evenodd"></path><path d="M6,5V6H5Z" fill-rule="evenodd"></path></g><g transform="translate(30 42)"><path d="M5,0H6L0,6V5Z" fill-rule="evenodd"></path><path d="M6,5V6H5Z" fill-rule="evenodd"></path></g><g transform="translate(36 42)"><path d="M5,0H6L0,6V5Z" fill-rule="evenodd"></path><path d="M6,5V6H5Z" fill-rule="evenodd"></path></g><g transform="translate(42 42)"><path d="M5,0H6L0,6V5Z" fill-rule="evenodd"></path><path d="M6,5V6H5Z" fill-rule="evenodd"></path></g><g transform="translate(48 42)"><path d="M5,0H6L0,6V5Z" fill-rule="evenodd"></path><path d="M6,5V6H5Z" fill-rule="evenodd"></path></g><g transform="translate(54 42)"><path d="M5,0H6L0,6V5Z" fill-rule="evenodd"></path><path d="M6,5V6H5Z" fill-rule="evenodd"></path></g><g transform="translate(60 42)"><path d="M5,0H6L0,6V5Z" fill-rule="evenodd"></path><path d="M6,5V6H5Z" fill-rule="evenodd"></path></g><g transform="translate(66 42)"><path d="M5,0H6L0,6V5Z" fill-rule="evenodd"></path><path d="M6,5V6H5Z" fill-rule="evenodd"></path></g><g transform="translate(72 42)"><path d="M5,0H6L0,6V5Z" fill-rule="evenodd"></path><path d="M6,5V6H5Z" fill-rule="evenodd"></path></g><g transform="translate(0 48)"><path d="M5,0H6L0,6V5Z" fill-rule="evenodd"></path><path d="M6,5V6H5Z" fill-rule="evenodd"></path></g><g transform="translate(6 48)"><path d="M5,0H6L0,6V5Z" fill-rule="evenodd"></path><path d="M6,5V6H5Z" fill-rule="evenodd"></path></g><g transform="translate(12 48)"><path d="M5,0H6L0,6V5Z" fill-rule="evenodd"></path><path d="M6,5V6H5Z" fill-rule="evenodd"></path></g><g transform="translate(18 48)"><path d="M5,0H6L0,6V5Z" fill-rule="evenodd"></path><path d="M6,5V6H5Z" fill-rule="evenodd"></path></g><g transform="translate(24 48)"><path d="M5,0H6L0,6V5Z" fill-rule="evenodd"></path><path d="M6,5V6H5Z" fill-rule="evenodd"></path></g><g transform="translate(30 48)"><path d="M5,0H6L0,6V5Z" fill-rule="evenodd"></path><path d="M6,5V6H5Z" fill-rule="evenodd"></path></g><g transform="translate(36 48)"><path d="M5,0H6L0,6V5Z" fill-rule="evenodd"></path><path d="M6,5V6H5Z" fill-rule="evenodd"></path></g><g transform="translate(42 48)"><path d="M5,0H6L0,6V5Z" fill-rule="evenodd"></path><path d="M6,5V6H5Z" fill-rule="evenodd"></path></g><g transform="translate(48 48)"><path d="M5,0H6L0,6V5Z" fill-rule="evenodd"></path><path d="M6,5V6H5Z" fill-rule="evenodd"></path></g><g transform="translate(54 48)"><path d="M5,0H6L0,6V5Z" fill-rule="evenodd"></path><path d="M6,5V6H5Z" fill-rule="evenodd"></path></g><g transform="translate(60 48)"><path d="M5,0H6L0,6V5Z" fill-rule="evenodd"></path><path d="M6,5V6H5Z" fill-rule="evenodd"></path></g><g transform="translate(66 48)"><path d="M5,0H6L0,6V5Z" fill-rule="evenodd"></path><path d="M6,5V6H5Z" fill-rule="evenodd"></path></g><g transform="translate(72 48)"><path d="M5,0H6L0,6V5Z" fill-rule="evenodd"></path><path d="M6,5V6H5Z" fill-rule="evenodd"></path></g><g transform="translate(0 54)"><path d="M5,0H6L0,6V5Z" fill-rule="evenodd"></path><path d="M6,5V6H5Z" fill-rule="evenodd"></path></g><g transform="translate(6 54)"><path d="M5,0H6L0,6V5Z" fill-rule="evenodd"></path><path d="M6,5V6H5Z" fill-rule="evenodd"></path></g><g transform="translate(12 54)"><path d="M5,0H6L0,6V5Z" fill-rule="evenodd"></path><path d="M6,5V6H5Z" fill-rule="evenodd"></path></g><g transform="translate(18 54)"><path d="M5,0H6L0,6V5Z" fill-rule="evenodd"></path><path d="M6,5V6H5Z" fill-rule="evenodd"></path></g><g transform="translate(24 54)"><path d="M5,0H6L0,6V5Z" fill-rule="evenodd"></path><path d="M6,5V6H5Z" fill-rule="evenodd"></path></g><g transform="translate(30 54)"><path d="M5,0H6L0,6V5Z" fill-rule="evenodd"></path><path d="M6,5V6H5Z" fill-rule="evenodd"></path></g><g transform="translate(36 54)"><path d="M5,0H6L0,6V5Z" fill-rule="evenodd"></path><path d="M6,5V6H5Z" fill-rule="evenodd"></path></g><g transform="translate(42 54)"><path d="M5,0H6L0,6V5Z" fill-rule="evenodd"></path><path d="M6,5V6H5Z" fill-rule="evenodd"></path></g><g transform="translate(48 54)"><path d="M5,0H6L0,6V5Z" fill-rule="evenodd"></path><path d="M6,5V6H5Z" fill-rule="evenodd"></path></g><g transform="translate(54 54)"><path d="M5,0H6L0,6V5Z" fill-rule="evenodd"></path><path d="M6,5V6H5Z" fill-rule="evenodd"></path></g><g transform="translate(60 54)"><path d="M5,0H6L0,6V5Z" fill-rule="evenodd"></path><path d="M6,5V6H5Z" fill-rule="evenodd"></path></g><g transform="translate(66 54)"><path d="M5,0H6L0,6V5Z" fill-rule="evenodd"></path><path d="M6,5V6H5Z" fill-rule="evenodd"></path></g><g transform="translate(72 54)"><path d="M5,0H6L0,6V5Z" fill-rule="evenodd"></path><path d="M6,5V6H5Z" fill-rule="evenodd"></path></g><g transform="translate(0 60)"><path d="M5,0H6L0,6V5Z" fill-rule="evenodd"></path><path d="M6,5V6H5Z" fill-rule="evenodd"></path></g><g transform="translate(6 60)"><path d="M5,0H6L0,6V5Z" fill-rule="evenodd"></path><path d="M6,5V6H5Z" fill-rule="evenodd"></path></g><g transform="translate(12 60)"><path d="M5,0H6L0,6V5Z" fill-rule="evenodd"></path><path d="M6,5V6H5Z" fill-rule="evenodd"></path></g><g transform="translate(18 60)"><path d="M5,0H6L0,6V5Z" fill-rule="evenodd"></path><path d="M6,5V6H5Z" fill-rule="evenodd"></path></g><g transform="translate(24 60)"><path d="M5,0H6L0,6V5Z" fill-rule="evenodd"></path><path d="M6,5V6H5Z" fill-rule="evenodd"></path></g><g transform="translate(30 60)"><path d="M5,0H6L0,6V5Z" fill-rule="evenodd"></path><path d="M6,5V6H5Z" fill-rule="evenodd"></path></g><g transform="translate(36 60)"><path d="M5,0H6L0,6V5Z" fill-rule="evenodd"></path><path d="M6,5V6H5Z" fill-rule="evenodd"></path></g><g transform="translate(42 60)"><path d="M5,0H6L0,6V5Z" fill-rule="evenodd"></path><path d="M6,5V6H5Z" fill-rule="evenodd"></path></g><g transform="translate(48 60)"><path d="M5,0H6L0,6V5Z" fill-rule="evenodd"></path><path d="M6,5V6H5Z" fill-rule="evenodd"></path></g><g transform="translate(54 60)"><path d="M5,0H6L0,6V5Z" fill-rule="evenodd"></path><path d="M6,5V6H5Z" fill-rule="evenodd"></path></g><g transform="translate(60 60)"><path d="M5,0H6L0,6V5Z" fill-rule="evenodd"></path><path d="M6,5V6H5Z" fill-rule="evenodd"></path></g><g transform="translate(66 60)"><path d="M5,0H6L0,6V5Z" fill-rule="evenodd"></path><path d="M6,5V6H5Z" fill-rule="evenodd"></path></g><g transform="translate(72 60)"><path d="M5,0H6L0,6V5Z" fill-rule="evenodd"></path><path d="M6,5V6H5Z" fill-rule="evenodd"></path></g><g transform="translate(0 66)"><path d="M5,0H6L0,6V5Z" fill-rule="evenodd"></path><path d="M6,5V6H5Z" fill-rule="evenodd"></path></g><g transform="translate(6 66)"><path d="M5,0H6L0,6V5Z" fill-rule="evenodd"></path><path d="M6,5V6H5Z" fill-rule="evenodd"></path></g><g transform="translate(12 66)"><path d="M5,0H6L0,6V5Z" fill-rule="evenodd"></path><path d="M6,5V6H5Z" fill-rule="evenodd"></path></g><g transform="translate(18 66)"><path d="M5,0H6L0,6V5Z" fill-rule="evenodd"></path><path d="M6,5V6H5Z" fill-rule="evenodd"></path></g><g transform="translate(24 66)"><path d="M5,0H6L0,6V5Z" fill-rule="evenodd"></path><path d="M6,5V6H5Z" fill-rule="evenodd"></path></g><g transform="translate(30 66)"><path d="M5,0H6L0,6V5Z" fill-rule="evenodd"></path><path d="M6,5V6H5Z" fill-rule="evenodd"></path></g><g transform="translate(36 66)"><path d="M5,0H6L0,6V5Z" fill-rule="evenodd"></path><path d="M6,5V6H5Z" fill-rule="evenodd"></path></g><g transform="translate(42 66)"><path d="M5,0H6L0,6V5Z" fill-rule="evenodd"></path><path d="M6,5V6H5Z" fill-rule="evenodd"></path></g><g transform="translate(48 66)"><path d="M5,0H6L0,6V5Z" fill-rule="evenodd"></path><path d="M6,5V6H5Z" fill-rule="evenodd"></path></g><g transform="translate(54 66)"><path d="M5,0H6L0,6V5Z" fill-rule="evenodd"></path><path d="M6,5V6H5Z" fill-rule="evenodd"></path></g><g transform="translate(60 66)"><path d="M5,0H6L0,6V5Z" fill-rule="evenodd"></path><path d="M6,5V6H5Z" fill-rule="evenodd"></path></g><g transform="translate(66 66)"><path d="M5,0H6L0,6V5Z" fill-rule="evenodd"></path><path d="M6,5V6H5Z" fill-rule="evenodd"></path></g><g transform="translate(72 66)"><path d="M5,0H6L0,6V5Z" fill-rule="evenodd"></path><path d="M6,5V6H5Z" fill-rule="evenodd"></path></g></g></svg>